<svg xmlns="http://www.w3.org/2000/svg" viewBox="0 0 512 512">
  <linearGradient id="a" x1="256" x2="256" y1="512" y2="30" gradientUnits="userSpaceOnUse">
    <stop offset="0" stop-color="#fd5900"/>
    <stop offset="1" stop-color="#ffde00"/>
  </linearGradient>
  <linearGradient id="b" x1="256" x2="256" y1="422" y2="0" gradientUnits="userSpaceOnUse">
    <stop offset="0" stop-color="#ffe59a"/>
    <stop offset="1" stop-color="#ffffd5"/>
  </linearGradient>
  <path fill="url(#a)" d="M256 210c24.814 0 45-20.186 45-45v-30c0-11.567-4.508-22.02-11.704-30C296.492 97.02 301 86.567 301 75c0-24.814-20.186-45-45-45s-45 20.186-45 45c0 11.567 4.508 22.02 11.704 30-7.196 7.98-11.704 18.433-11.704 30v30c0 24.814 20.186 45 45 45zM467 30h-91c-8.401 0-15 6.599-15 15v150c0 8.399-6.599 15-15 15h-60c-5.698 0-10.8 3.3-13.499 8.399L256 251.4l-16.501-33.001C236.8 213.3 231.698 210 226 210h-60c-8.401 0-15-6.601-15-15V45c0-8.401-6.599-15-15-15H45C20.098 30 0 50.1 0 75v257l256 60 256-60V75c0-24.9-20.098-45-45-45zm-61 452h-30c-24.814 0-45-20.186-45-45v-15c0-8.291-6.709-15-15-15H196c-8.291 0-15 6.709-15 15v15c0 24.814-20.186 45-45 45h-30c-8.291 0-15 6.709-15 15s6.709 15 15 15h300c8.291 0 15-6.709 15-15s-6.709-15-15-15z" data-original="url(#a)"/>
  <path fill="url(#b)" d="M0 332v45c0 24.899 20.098 45 45 45h422c24.902 0 45-20.101 45-45v-45zm166-92h50.698l25.803 51.599C245.2 296.7 250.302 300 256 300s10.8-3.3 13.499-8.401L295.302 240H346c24.902 0 45-20.101 45-45V45c0-24.9-20.098-45-45-45H166c-24.902 0-45 20.1-45 45v150c0 24.899 20.098 45 45 45zm90-180c8.401 0 15 6.599 15 15 0 8.399-6.599 15-15 15s-15-6.601-15-15c0-8.401 6.599-15 15-15zm-15 75c0-8.401 6.599-15 15-15s15 6.599 15 15v30c0 8.399-6.599 15-15 15s-15-6.601-15-15z" data-original="url(#b)"/>
</svg>
